<?xml version="1.0" encoding="UTF-8" standalone="no"?>
<!-- Created with Inkscape (http://www.inkscape.org/) -->

<svg
   width="32"
   height="32"
   viewBox="0 0 8.4666667 8.4666667"
   version="1.1"
   id="svg5"
   xmlns="http://www.w3.org/2000/svg"
   xmlns:svg="http://www.w3.org/2000/svg">
  <defs
     id="defs2" />
  <g
     id="layer1">
    <g
       id="g7550"
       transform="translate(-2.58054,-2.4268919)">
      <rect
         style="fill:#264774;fill-opacity:1;stroke:none;stroke-width:0.264583"
         id="rect5992"
         width="8.4666662"
         height="8.4666662"
         x="2.5805397"
         y="2.4268916" />
      <path
         style="fill:#ffde59;fill-opacity:1;stroke:none"
         id="path6220"
         d="m 129.03028,163.67163 -2.22919,-0.97281 -2.06514,1.28485 0.23634,-2.4207 -1.86013,-1.56703 2.37526,-0.52326 0.91552,-2.25333 1.23164,2.09731 2.42596,0.17439 -1.61406,1.81947 z"
         transform="matrix(0.08025912,0,0,0.08025912,-4.051954,-9.8849214)" />
      <path
         style="fill:#ffbd59;fill-opacity:1;stroke:none"
         id="path6410"
         d="m 129.03028,163.67163 -2.22919,-0.97281 -2.06514,1.28485 0.23634,-2.4207 -1.86013,-1.56703 2.37526,-0.52326 0.91552,-2.25333 1.23164,2.09731 2.42596,0.17439 -1.61406,1.81947 z"
         transform="matrix(0.06757363,0.03891627,-0.03891627,0.06757363,5.688728,-12.111709)" />
      <path
         style="fill:#ff914d;fill-opacity:1;stroke:none"
         id="path6484"
         d="m 129.03028,163.67163 -2.22919,-0.97281 -2.06514,1.28485 0.23634,-2.4207 -1.86013,-1.56703 2.37526,-0.52326 0.91552,-2.25333 1.23164,2.09731 2.42596,0.17439 -1.61406,1.81947 z"
         transform="matrix(0.06950456,0.04711144,-0.04711144,0.06950456,2.169897,-12.390735)" />
      <path
         style="fill:#ff914d;fill-opacity:1;stroke:none"
         id="path6756"
         d="m 129.03028,163.67163 -2.22919,-0.97281 -2.06514,1.28485 0.23634,-2.4207 -1.86013,-1.56703 2.37526,-0.52326 0.91552,-2.25333 1.23164,2.09731 2.42596,0.17439 -1.61406,1.81947 z"
         transform="matrix(0.0560329,-0.03434417,0.03434417,0.0560329,-2.418616,-0.95809035)" />
      <path
         style="fill:#ffde59;fill-opacity:1;stroke:none"
         id="path6758"
         d="m 129.03028,163.67163 -2.22919,-0.97281 -2.06514,1.28485 0.23634,-2.4207 -1.86013,-1.56703 2.37526,-0.52326 0.91552,-2.25333 1.23164,2.09731 2.42596,0.17439 -1.61406,1.81947 z"
         transform="matrix(0.11801795,0,0,0.11801795,-6.105313,-12.587671)" />
      <path
         style="fill:#ffbd59;fill-opacity:1;stroke:none"
         id="path6760"
         d="m 129.03028,163.67163 -2.22919,-0.97281 -2.06514,1.28485 0.23634,-2.4207 -1.86013,-1.56703 2.37526,-0.52326 0.91552,-2.25333 1.23164,2.09731 2.42596,0.17439 -1.61406,1.81947 z"
         transform="matrix(0.06444182,-0.01726714,0.01726714,0.06444182,-5.509421,-1.9159694)" />
      <path
         style="fill:#ffde59;fill-opacity:1;stroke:none"
         id="path6762"
         d="m 129.03028,163.67163 -2.22919,-0.97281 -2.06514,1.28485 0.23634,-2.4207 -1.86013,-1.56703 2.37526,-0.52326 0.91552,-2.25333 1.23164,2.09731 2.42596,0.17439 -1.61406,1.81947 z"
         transform="matrix(0.09120968,0.04241592,-0.04241592,0.09120968,0.42878298,-12.233882)" />
      <path
         style="fill:#ff914d;fill-opacity:1;stroke:none"
         id="path7164"
         d="m 129.03028,163.67163 -2.22919,-0.97281 -2.06514,1.28485 0.23634,-2.4207 -1.86013,-1.56703 2.37526,-0.52326 0.91552,-2.25333 1.23164,2.09731 2.42596,0.17439 -1.61406,1.81947 z"
         transform="matrix(0.05280106,0,0,0.05280106,1.281008,-0.91822335)" />
      <path
         style="fill:#ffbd59;fill-opacity:1;stroke:none"
         id="path7166"
         d="m 129.03028,163.67163 -2.22919,-0.97281 -2.06514,1.28485 0.23634,-2.4207 -1.86013,-1.56703 2.37526,-0.52326 0.91552,-2.25333 1.23164,2.09731 2.42596,0.17439 -1.61406,1.81947 z"
         transform="matrix(0.09982283,-0.0669937,0.0669937,0.09982283,-20.137763,1.7212066)" />
      <path
         id="rect6871"
         style="fill:#ccd6dd;fill-opacity:1;stroke:none;stroke-width:0.264583"
         d="m 11.047203,9.7757676 a 8.2165678,8.2165678 0 0 0 -0.120407,-0.07028 8.2165678,8.2165678 0 0 0 -0.132807,-0.0739 8.2165678,8.2165678 0 0 0 -0.133842,-0.07131 8.2165678,8.2165678 0 0 0 -0.135393,-0.06924 8.2165678,8.2165678 0 0 0 -0.136427,-0.06615 8.2165678,8.2165678 0 0 0 -0.137975,-0.06408 8.2165678,8.2165678 0 0 0 -0.139009,-0.06098 8.2165678,8.2165678 0 0 0 -0.139526,-0.05891 8.2165678,8.2165678 0 0 0 -0.141078,-0.05633 8.2165678,8.2165678 0 0 0 -0.142111,-0.05323 8.2165678,8.2165678 0 0 0 -0.143142,-0.05116 8.2165678,8.2165678 0 0 0 -0.144177,-0.04806 8.2165678,8.2165678 0 0 0 -0.144695,-0.04599 8.2165678,8.2165678 0 0 0 -0.145727,-0.04289 8.2165678,8.2165678 0 0 0 -0.146243,-0.03979 8.2165678,8.2165678 0 0 0 -0.147281,-0.03772 8.2165678,8.2165678 0 0 0 -0.147793,-0.03462 8.2165678,8.2165678 0 0 0 -0.148312,-0.03204 8.2165678,8.2165678 0 0 0 -0.149344,-0.02946 8.2165678,8.2165678 0 0 0 -0.149344,-0.02636 8.2165678,8.2165678 0 0 0 -0.149863,-0.02377 8.2165678,8.2165678 0 0 0 -0.150379,-0.02119 8.2165678,8.2165678 0 0 0 -0.150894,-0.01809 8.2165678,8.2165678 0 0 0 -0.150895,-0.0155 8.2165678,8.2165678 0 0 0 -0.151413,-0.0124 8.2165678,8.2165678 0 0 0 -0.15141,-0.0098 8.2165678,8.2165678 0 0 0 -0.151929,-0.0072 8.2165678,8.2165678 0 0 0 -0.151413,-0.0041 8.2165678,8.2165678 0 0 0 -0.151929,-0.0016 8.2165678,8.2165678 0 0 0 -0.444934,0.0124 8.2165678,8.2165678 0 0 0 -0.443384,0.03617 8.2165678,8.2165678 0 0 0 -0.441317,0.05994 8.2165678,8.2165678 0 0 0 -0.436666,0.08372 8.2165678,8.2165678 0 0 0 -0.432014,0.107487 8.2165678,8.2165678 0 0 0 -0.425296,0.130741 8.2165678,8.2165678 0 0 0 -0.417547,0.153479 8.2165678,8.2165678 0 0 0 -0.40876,0.1757 8.2165678,8.2165678 0 0 0 -0.398942,0.197921 8.2165678,8.2165678 0 0 0 -0.387575,0.218591 8.2165678,8.2165678 0 0 0 -0.04547,0.02894 v 1.0588524 h 8.466667 z" />
      <path
         style="fill:#ffbd59;fill-opacity:1;stroke:none"
         id="path7168"
         d="m 129.03028,163.67163 -2.22919,-0.97281 -2.06514,1.28485 0.23634,-2.4207 -1.86013,-1.56703 2.37526,-0.52326 0.91552,-2.25333 1.23164,2.09731 2.42596,0.17439 -1.61406,1.81947 z"
         transform="matrix(0.09706815,0,0,0.09706815,-1.673361,-7.2991654)" />
      <path
         style="fill:#ffde59;fill-opacity:1;stroke:none"
         id="path7376"
         d="m 129.03028,163.67163 -2.22919,-0.97281 -2.06514,1.28485 0.23634,-2.4207 -1.86013,-1.56703 2.37526,-0.52326 0.91552,-2.25333 1.23164,2.09731 2.42596,0.17439 -1.61406,1.81947 z"
         transform="matrix(0.06835961,0,0,0.06835961,1.514063,-5.6245704)" />
      <path
         style="fill:#ff914d;fill-opacity:1;stroke:none"
         id="path7378"
         d="m 129.03028,163.67163 -2.22919,-0.97281 -2.06514,1.28485 0.23634,-2.4207 -1.86013,-1.56703 2.37526,-0.52326 0.91552,-2.25333 1.23164,2.09731 2.42596,0.17439 -1.61406,1.81947 z"
         transform="matrix(0.08016994,0,0,0.08016994,-2.791233,-7.0732234)" />
      <rect
         style="opacity:0.9;fill:#ffffff;fill-opacity:1;stroke:none;stroke-width:0.238085"
         id="rect7192"
         width="5.7167382"
         height="0.560628"
         x="3.9555054"
         y="5.050869" />
      <path
         style="fill:#ffde59;fill-opacity:1;stroke:none"
         id="path7380"
         d="m 129.03028,163.67163 -2.22919,-0.97281 -2.06514,1.28485 0.23634,-2.4207 -1.86013,-1.56703 2.37526,-0.52326 0.91552,-2.25333 1.23164,2.09731 2.42596,0.17439 -1.61406,1.81947 z"
         transform="matrix(0.06642748,-0.03724467,0.03724467,0.06642748,-10.991304,0.45867665)" />
    </g>
  </g>
</svg>
